<svg xmlns="http://www.w3.org/2000/svg" xmlns:xlink="http://www.w3.org/1999/xlink" xml:space="preserve" style="enable-background:new 0 0 800 418" viewBox="0 0 800 418"><style>.st0{fill:#4ea8f1}.st1{fill:#76bef7}.st12{fill-rule:evenodd;clip-rule:evenodd;fill:#4ea8f1}.st35{fill:none;stroke:#4ea8f1;stroke-width:1.5;stroke-linecap:round;stroke-miterlimit:10}</style><g id="amazon"><path d="M543 142H272.8c-.4 0-.9-.2-1.1-.6l-35.6-60.3h-53.6c-.7 0-1.2-.6-1.2-1.2s.6-1.2 1.2-1.2h54.3c.4 0 .9.2 1.1.6l35.6 60.3H543c.7 0 1.2.6 1.2 1.2s-.5 1.2-1.2 1.2zM552.8 245.4h-280c-.7 0-1.2-.6-1.2-1.2s.6-1.2 1.2-1.2h280.1c.7 0 1.2.6 1.2 1.2s-.6 1.2-1.3 1.2z" class="st1"/><path d="m312.5 158.9-22-3.9c-.2 0-.4 0-.5.2L273.1 170c-.2.2-.3.4-.2.7l6.4 22.8c.1.2.3.4.5.5l22 3.9h.3c.1 0 .2-.1.3-.1l16.8-14.8c.2-.2.3-.4.2-.7l-6.4-22.8c-.1-.3-.3-.5-.5-.6zm-22-2.6 20.4 3.6-4.5 4h-.1l-20.3-3.6 4.5-4zm-5.7 5.1 20.4 3.6-3.2 2.8-20.4-3.6 3.2-2.8zm21.1 4.7 1.8 6.6-3 2.6-1.8-6.6 3-2.6zm12.1 16L302.3 196l-6-21.4 3.7-3.3c.3-.2.3-.6.1-.9-.2-.3-.6-.3-.9-.1l-3.8 3.4-2-.4c-.4-.1-.7.2-.8.5-.1.4.2.7.5.8l1.9.3 6 21.4-20.6-3.7-6-21.4 15.7 2.8h.3c.2-.1.4-.3.5-.5.1-.4-.2-.7-.5-.8L275 170l5.4-4.7 21.4 3.8 2.1 7.5c.1.2.2.4.4.4h.4c.1 0 .2-.1.3-.1l4.1-3.6c.2-.2.3-.4.2-.7l-2.1-7.6 5-4.4 5.8 21.5z" class="st0"/><path d="m284.9 188.8-3.2-.6c-.4-.1-.7.2-.8.5-.1.4.2.7.5.8l3.2.6h.3c.2-.1.4-.3.5-.5.1-.4-.1-.8-.5-.8zM287.1 186.3l-6.2-1.1c-.4-.1-.7.2-.8.5-.1.4.2.7.5.8l6.2 1.1h.3c.2-.1.4-.3.5-.5 0-.4-.2-.7-.5-.8zM395.6 208.3l-11.8-2.1c-.1 0-.2 0-.3.1l-9 8c-.1.1-.1.2-.1.4l3.4 12.2c0 .1.1.2.3.2l11.8 2.1h.2c.1 0 .1 0 .1-.1l9-8c.1-.1.1-.2.1-.4l-3.4-12.2c-.1-.1-.2-.2-.3-.2zm-11.8-1.4 11 2-2.4 2.1h-.1l-10.9-1.9 2.4-2.2zm-3.1 2.7 10.9 2-1.7 1.5-10.9-2 1.7-1.5zm11.4 2.5 1 3.5-1.6 1.4-1-3.5 1.6-1.4zm6.5 8.6-8.4 7.4-3.2-11.5 2-1.8c.1-.1.2-.3 0-.5-.1-.1-.3-.2-.5 0l-2.1 1.8-1.1-.2c-.2 0-.4.1-.4.3s.1.4.3.4l1 .2 3.2 11.5-11.1-2-3.2-11.5 8.4 1.5h.2c.1 0 .2-.1.2-.3 0-.2-.1-.4-.3-.4l-8.3-1.5 2.9-2.6 11.5 2 1.1 4c0 .1.1.2.2.2h.2s.1 0 .1-.1l2.2-1.9c.1-.1.1-.2.1-.4l-1.1-4.1 2.7-2.4 3.4 11.9z" class="st0"/><path d="m380.8 224.3-1.8-.3c-.2 0-.4.1-.4.3s.1.4.3.4l1.7.3h.2c.1 0 .2-.1.2-.3.1-.2 0-.4-.2-.4zM381.9 223l-3.3-.6c-.2 0-.4.1-.4.3 0 .2.1.4.3.4l3.3.6h.2c.1 0 .2-.1.2-.3.1-.2-.1-.4-.3-.4zM404.6 192.2l3.3-22.1c0-.2 0-.4-.2-.5l-15.3-16.4c-.2-.2-.4-.3-.7-.2l-22.6 7c-.2.1-.4.3-.4.5l-3.3 22.1v.3c0 .1.1.2.1.3l15.3 16.4c.2.2.4.3.7.2l22.6-7c.3-.1.4-.3.5-.6zm1.9-22-3.1 20.5-4.1-4.4v-.1l3-20.4 4.2 4.4zm-5.2-5.6-3 20.5-2.9-3.1 3-20.5 2.9 3.1zm-4.1 21.3-6.5 2-2.7-2.9 6.5-2 2.7 2.9zm-15.6 12.5-14.3-15.3 21.2-6.6 3.4 3.6c.2.3.7.3.9 0 .3-.2.3-.7 0-.9l-3.5-3.7.3-2c.1-.4-.2-.7-.5-.7s-.7.2-.7.5l-.3 1.9-21.2 6.6 3.1-20.7 21.2-6.6-2.3 15.8v.3c.1.2.3.4.5.5.4.1.7-.2.7-.5l2.3-15.5 4.9 5.2-3.2 21.5-7.5 2.3c-.2.1-.4.2-.4.5v.4c0 .1.1.2.1.3l3.7 3.9c.2.2.4.3.7.2l7.5-2.3 4.5 4.9-21.1 6.4z" class="st0"/><path d="m374 165.5.5-3.2c.1-.4-.2-.7-.5-.7-.4-.1-.7.2-.7.5l-.5 3.2v.3c.1.2.3.4.5.5.3 0 .6-.2.7-.6zM376.5 167.6l.9-6.2c.1-.4-.2-.7-.5-.7-.4-.1-.7.2-.7.5l-.9 6.2v.3c.1.2.3.4.5.5.3 0 .6-.2.7-.6zM481 152.8l-20.5 9c-.2.1-.3.2-.4.4l-5.7 21.7c-.1.2 0 .5.2.7l18 15.3c.2.2.5.2.7.1l20.5-9c.1 0 .2-.1.2-.2s.1-.2.1-.3l5.7-21.7c.1-.2 0-.5-.2-.7l-18-15.3c-.1-.1-.4-.1-.6 0zm-19.7 10.1 19-8.4-1.5 5.8h-.1l-18.8 8.3 1.4-5.7zm-1.9 7.4 18.9-8.3-1.1 4.1-18.9 8.3 1.1-4.1zm20.2-7.9 5.2 4.4-1 3.8-5.2-4.4 1-3.8zm18.9 6.5-5.3 20.3-16.9-14.4 1.3-4.8c.1-.3-.1-.7-.5-.8-.3-.1-.7.1-.8.5l-1.3 4.9-1.8.8c-.3.1-.5.5-.3.9.1.3.5.5.9.3l1.7-.8 16.9 14.4-19.2 8.4-16.9-14.4 14.6-6.4c.1 0 .2-.1.2-.2.2-.2.2-.4.1-.7-.1-.3-.5-.5-.9-.3l-14.3 6.3 1.8-6.9 19.8-8.7 5.9 5.1c.2.1.4.2.6.1.1 0 .2-.1.3-.2.1-.1.1-.2.1-.3l1.4-5.2c.1-.2 0-.5-.2-.7l-6-5.1 1.7-6.4 17.1 14.3z" class="st0"/><path d="m474.7 192.9-3 1.3c-.3.1-.5.5-.3.9.1.3.5.5.9.3l3-1.3c.1 0 .2-.1.2-.2.2-.2.2-.4.1-.7-.1-.3-.5-.4-.9-.3zM475.2 189.7l-5.8 2.5c-.3.1-.5.5-.3.9.1.3.5.5.9.3l5.8-2.5c.1 0 .2-.1.2-.2.2-.2.2-.4.1-.7-.2-.3-.6-.4-.9-.3zM486.6 205.6l-11.1-2.8c-.1 0-.2 0-.3.1l-9.1 7c-.1.1-.1.2-.1.3l2.5 11.9c0 .1.1.2.2.3l11.1 2.8h.1s.1 0 .1-.1l9.1-7c.1-.1.1-.2.1-.3l-2.5-11.9c.1-.1 0-.2-.1-.3zm-11.1-2.1 10.3 2.6-2.4 1.9h-.1l-10.2-2.6 2.4-1.9zm-3.1 2.4 10.3 2.6-1.7 1.3-10.3-2.6 1.7-1.3zm10.6 3.2.7 3.4-1.6 1.2-.7-3.4 1.6-1.2zm5.6 8.6-8.5 6.5-2.3-11.1 2-1.6c.1-.1.2-.3.1-.5-.1-.1-.3-.2-.5-.1l-2.1 1.6-1-.2c-.2 0-.4.1-.4.2 0 .2.1.4.2.4l.9.2 2.3 11.1-10.4-2.6-2.3-11.1 7.9 2h.1c.1 0 .2-.1.3-.2 0-.2-.1-.4-.2-.4l-7.8-1.9 2.9-2.2 10.8 2.7.8 3.9c0 .1.1.2.2.2h.2s.1 0 .1-.1l2.2-1.7c.1-.1.1-.2.1-.3l-.8-3.9 2.7-2.1 2.5 11.2z" class="st0"/><path d="m471.5 219.9-1.6-.4c-.2 0-.4.1-.4.2 0 .2.1.4.2.4l1.6.4h.1c.1 0 .2-.1.3-.2.1-.2-.1-.4-.2-.4zM472.7 218.7l-3.1-.8c-.2 0-.4.1-.4.2 0 .2.1.4.2.4l3.1.8h.1c.1 0 .2-.1.3-.2 0-.1-.1-.3-.2-.4zM357.5 208.8l6.7-1.7c.2-.1.4-.2.4-.4.1-.2.1-.4 0-.6l-9.3-15.7c-.1-.2-.4-.4-.7-.3l-6.7 1.7-1.7-6.7c0-.2-.1-.3-.3-.4-.1-.1-.2-.1-.3-.1l-5.8-.3c-.2 0-.3.1-.5.2-.1.1-.2.3-.2.5s.1.5.3.6c.1.1.2.1.3.1l5.4.2 1.5 6.1-16.9-.8-1.5-6 8.9.4c.2 0 .3-.1.5-.2.1-.1.2-.3.2-.5s-.1-.5-.3-.6c-.1-.1-.2-.1-.3-.1l-9.7-.4c-.2 0-.4.1-.5.2-.1.2-.2.4-.1.6l1.6 6.7-6.7 1.7c-.2.1-.4.2-.4.4-.1.2-.1.4 0 .6l2.9 4.9-6 10.1v.2l9.3 15.7v.1h.5l18.2.8h.1v-.1l6-10.1 5.7.2c.2 0 .4-.1.5-.2.1-.2.2-.4.1-.6l-1.2-6.2zm-3-17.3 8.6 14.5-6 1.5-8.6-14.5 6-1.5zm-29 7.1-2.6-4.5 6-1.5 8.6 14.5-6.1 1.5-5.9-10zm2.5 25.1-8.5-14.4 5.5-9.1 5.6 9.5c.1.1.1.2.2.2.1.1.3.1.5.1l5.8-1.5-9.1 15.2zm10.9-16.8-8.5-14.4 16.7.8 8.5 14.4-16.7-.8zm13.6 7.9-3.7-.2c-.2 0-.3.1-.5.2-.1.1-.2.3-.2.5s.1.5.3.6c.1.1.2.1.3.1l2.6.1-5.5 9.1-16.7-.8 9.1-15.2 1.5 5.8c0 .2.1.3.3.4.1.1.2.1.3.1l5.8.3c.2 0 .3-.1.5-.2.1-.1.2-.3.2-.5s-.1-.5-.3-.6c-.1-.1-.2-.1-.3-.1l-5.4-.2-1.5-6.1 16.9.8 1.5 6-5.2-.1zM349.9 166.5l3.9-1c.1 0 .2-.1.3-.2v-.3l-5.4-9.2c-.1-.1-.3-.2-.4-.2l-3.9 1-1-3.9c0-.1-.1-.2-.2-.2s-.1-.1-.2-.1l-3.4-.2c-.1 0-.2 0-.3.1s-.1.2-.1.3c0 .1.1.3.2.3s.1.1.2.1l3.1.1.9 3.5-9.9-.4-.9-3.5 5.2.2c.1 0 .2 0 .3-.1.1-.1.1-.2.1-.3 0-.1-.1-.3-.2-.3s-.1-.1-.2-.1l-5.7-.3c-.1 0-.2 0-.3.1-.1.1-.1.2-.1.3l1 3.9-3.9 1c-.1 0-.2.1-.3.2v.3l1.7 2.9-3.5 5.9 5.4 9.2 10.7.5 3.5-5.9 3.3.1c.1 0 .2 0 .3-.1.1-.1.1-.2.1-.3l-.3-3.4zm-1.8-10.1 5 8.5-3.5.9-5-8.5 3.5-.9zm-16.9 4.1-1.5-2.6 3.5-.9 5 8.5-3.5.9-3.5-5.9zm1.4 14.8-5-8.4 3.2-5.3 3.3 5.6c0 .1.1.1.1.1.1.1.2.1.3 0l3.4-.9-5.3 8.9zm6.4-9.9-5-8.4 9.7.4 5 8.4-9.7-.4zm7.9 4.6-2.2-.1c-.1 0-.2 0-.3.1-.1.1-.1.2-.1.3 0 .1.1.3.2.3s.1.1.2.1l1.5.1-3.2 5.3-9.8-.4 5.3-8.9.9 3.4c0 .1.1.2.2.2s.1.1.2.1l3.4.2c.1 0 .2 0 .3-.1s.1-.2.1-.3c0-.1-.1-.3-.2-.3s-.1-.1-.2-.1l-3.1-.1-.9-3.5 9.9.4.9 3.5-3.1-.2zM446.7 192.7l2.4-6.5c.1-.2 0-.4-.1-.6-.1-.2-.3-.3-.5-.3l-18.1-1.4c-.3 0-.6.1-.7.4l-2.5 6.5-6.5-2.5c-.2-.1-.3-.1-.5 0-.1 0-.2.1-.3.2l-3.6 4.6c-.1.1-.2.3-.1.5s.1.3.2.4c.2.1.4.2.7.1.1 0 .2-.1.3-.2l3.3-4.3 5.8 2.2-10.3 13.4-5.8-2.2 5.4-7.1c.1-.1.2-.3.1-.5 0-.2-.1-.3-.2-.4-.2-.1-.4-.2-.7-.1-.1 0-.2.1-.3.2l-5.9 7.7c-.1.2-.2.4-.1.6.1.2.2.4.4.4l6.5 2.5-2.4 6.5c-.1.2 0 .4.1.6.1.2.3.3.5.3l5.7.4 4.8 10.7v.1h.1l18.2 1.4h.5l.1-.1 11.1-14.5v-.2l-4.8-10.7 3.4-4.5c.1-.2.2-.4.1-.6-.1-.2-.2-.4-.4-.4l-5.9-2.6zm-15.8-7.4 16.8 1.3-2.2 5.8-16.8-1.3 2.2-5.8zM420 213.1l-5.2-.4 2.2-5.8 16.8 1.3-2.2 5.8-11.6-.9c.1 0 .1 0 0 0zm22.1 12.3-16.7-1.2-4.4-9.7 11 .8c.1 0 .2 0 .3-.1.2-.1.3-.2.3-.4l2.1-5.6 7.4 16.2zm-7.6-18.5-16.6-1.2 10.1-13.2 16.6 1.2-10.1 13.2zm14.3-6.7-2.2 2.9c-.1.1-.2.3-.1.5 0 .2.1.3.2.4.2.1.4.2.7.1.1 0 .2-.1.3-.2l1.6-2.1 4.4 9.7-10.2 13.3-7.2-16.2 5.6 2.1c.2.1.3.1.5 0 .1 0 .2-.1.3-.2l3.6-4.6c.1-.1.2-.3.1-.5 0-.2-.1-.3-.2-.4-.2-.1-.4-.2-.7-.1-.1 0-.2.1-.2.2l-3.3 4.3-5.8-2.2 10.3-13.4 5.8 2.2-3.5 4.2zM444.5 168.9l2.7-1.3c.1 0 .1-.1.2-.2 0-.1 0-.2-.1-.2l-5.3-5.9c-.1-.1-.2-.1-.3-.1l-2.7 1.3-1.3-2.7c0-.1-.1-.1-.2-.1h-.1l-2.5.4c-.1 0-.1.1-.2.1 0 .1-.1.1-.1.2s.1.2.2.2h.1l2.3-.4 1.2 2.5-7.3 1.1-1.1-2.4 3.8-.6c.1 0 .1-.1.2-.1 0-.1.1-.1.1-.2s-.1-.2-.2-.2h-.1l-4.2.6c-.1 0-.2.1-.2.1v.3l1.3 2.7-2.7 1.3c-.1 0-.1.1-.2.2 0 .1 0 .2.1.2l1.6 1.8-1.7 4.8 5.3 5.9 7.8-1.2 1.7-4.8 2.4-.4c.1 0 .2-.1.2-.1v-.3l-.7-2.5zm-2.8-7.1 4.9 5.5-2.4 1.2-4.9-5.5 2.4-1.2zm-11.7 5.4-1.5-1.7 2.4-1.2 4.9 5.5-2.5 1.2-3.3-3.8zm3.2 10.6-4.9-5.4 1.6-4.4 3.2 3.6.1.1h.2l2.4-1.1-2.6 7.2zm3.2-8.1-4.8-5.4 7.2-1.1 4.8 5.4-7.2 1.1zm6.5 2.2-1.6.2c-.1 0-.1.1-.2.1 0 .1-.1.1-.1.2s.1.2.2.2h.1l1.1-.2-1.6 4.4-7.2 1.1 2.6-7.3 1.1 2.4c0 .1.1.1.2.1h.1l2.5-.4c.1 0 .1-.1.2-.1 0-.1.1-.1.1-.2s-.1-.2-.2-.2h-.1l-2.3.4-1.2-2.5 7.3-1.1 1.1 2.4-2.1.5zM539.4 199l4.9-4.9c.1-.1.2-.4.2-.6 0-.2-.2-.4-.3-.5l-16-8.7c-.3-.1-.6-.1-.8.1l-4.9 4.9-4.9-4.9c-.1-.1-.3-.2-.5-.2-.1 0-.2 0-.3.1l-5.1 2.8c-.2.1-.3.2-.3.4s0 .3.1.5.3.3.6.3c.1 0 .2 0 .3-.1l4.7-2.6 4.4 4.4-14.8 8-4.4-4.4 7.8-4.2c.2-.1.3-.2.3-.4s0-.3-.1-.5-.3-.3-.6-.3c-.1 0-.2 0-.3.1l-8.6 4.6c-.2.1-.3.3-.3.5s0 .4.2.6l4.9 4.9-4.9 4.9c-.1.1-.2.4-.2.6 0 .2.2.4.3.5l5 2.7V219.4h.1l16 8.7H522.7l16-8.7h.1V207.6l5-2.7c.2-.1.3-.3.3-.5s0-.4-.2-.6l-4.5-4.8zm-11.5-13.2 14.8 8-4.4 4.4-14.8-8 4.4-4.4zm-21.2 20.9-4.6-2.5 4.4-4.4 14.8 8-4.4 4.4-10.2-5.5zm15.1 20.3-14.7-8v-10.6l9.7 5.3c.1.1.2.1.3.1.2 0 .3-.1.5-.2l4.3-4.3V227zm.6-20.1-14.7-7.9 14.7-7.9 14.7 7.9-14.7 7.9zm15.8-.2c-.1 0-.1 0 0 0l-3.3 1.8c-.2.1-.3.2-.3.4s0 .3.1.5.3.3.6.3c.1 0 .2 0 .3-.1l2.3-1.2V219l-14.7 8v-17.7l4.3 4.3c.1.1.3.2.5.2.1 0 .2 0 .3-.1l5.1-2.8c.2-.1.3-.2.3-.4s0-.3-.1-.5-.3-.3-.6-.3c-.1 0-.2 0-.3.1l-4.7 2.6-4.4-4.4 14.8-8 4.4 4.4-4.6 2.3z" class="st0"/><path d="M319.8 308.5c-14.9 0-27-12.1-27-27s12.1-27 27-27 27 12.1 27 27-12.2 27-27 27zm0-51.5c-13.5 0-24.5 11-24.5 24.5s11 24.5 24.5 24.5 24.5-11 24.5-24.5-11-24.5-24.5-24.5zM495.9 308.5c-14.9 0-27-12.1-27-27s12.1-27 27-27 27 12.1 27 27-12.1 27-27 27zm0-51.5c-13.5 0-24.5 11-24.5 24.5s11 24.5 24.5 24.5 24.5-11 24.5-24.5-11-24.5-24.5-24.5z" class="st1"/><path d="M124.5 204.9c-6.2 4.6-15.3 7.1-23.1 7.1-10.9 0-20.8-4-28.2-10.8-.6-.5-.1-1.2.6-.8 8 4.7 18 7.5 28.2 7.5 6.9 0 14.5-1.4 21.5-4.4 1.2-.5 2.1.7 1 1.4z" class="st12"/><path d="M127.1 201.9c-.8-1-5.3-.5-7.3-.2-.6.1-.7-.5-.2-.8 3.6-2.5 9.4-1.8 10.1-.9.7.8-.2 6.7-3.5 9.5-.5.4-1 .2-.8-.4.8-1.9 2.5-6.1 1.7-7.2zM120 183.1v-2.4c0-.4.3-.6.6-.6h10.9c.3 0 .6.3.6.6v2.1c0 .4-.3.8-.8 1.5l-5.7 8.1c2.1 0 4.3.3 6.2 1.3.4.2.5.6.6 1v2.6c0 .4-.4.8-.8.6-3.4-1.8-7.8-2-11.6 0-.4.2-.8-.2-.8-.6v-2.5c0-.4 0-1.1.4-1.7l6.6-9.4h-5.7c-.2 0-.5-.2-.5-.6zM80.1 198.4h-3.3c-.3 0-.6-.3-.6-.6v-17.1c0-.3.3-.6.6-.6h3.1c.3 0 .6.3.6.6v2.2h.1c.8-2.2 2.3-3.2 4.4-3.2 2.1 0 3.4 1 4.3 3.2.8-2.2 2.6-3.2 4.6-3.2 1.4 0 2.9.6 3.8 1.9 1.1 1.4.8 3.5.8 5.4v10.8c0 .3-.3.6-.6.6h-3.3c-.3 0-.6-.3-.6-.6v-9c0-.7.1-2.5-.1-3.2-.2-1.1-1-1.5-2-1.5-.8 0-1.6.5-2 1.4-.3.9-.3 2.3-.3 3.3v9c0 .3-.3.6-.6.6h-3.3c-.3 0-.6-.3-.6-.6v-9c0-1.9.3-4.7-2-4.7-2.4 0-2.3 2.7-2.3 4.7v9c-.1.3-.3.6-.7.6zM141.6 179.8c4.9 0 7.6 4.2 7.6 9.6 0 5.2-2.9 9.3-7.6 9.3-4.8 0-7.5-4.2-7.5-9.5s2.7-9.4 7.5-9.4zm0 3.4c-2.5 0-2.6 3.3-2.6 5.4 0 2.1 0 6.5 2.6 6.5s2.7-3.6 2.7-5.8c0-1.4-.1-3.2-.5-4.5-.4-1.1-1.1-1.6-2.2-1.6zM155.6 198.4h-3.3c-.3 0-.6-.3-.6-.6v-17.1c0-.3.3-.6.6-.6h3.1c.3 0 .5.2.6.5v2.6h.1c.9-2.3 2.2-3.4 4.5-3.4 1.5 0 2.9.5 3.9 2 .9 1.4.9 3.7.9 5.3v10.7c0 .3-.3.5-.6.5h-3.3c-.3 0-.6-.2-.6-.5v-9.3c0-1.9.2-4.6-2.1-4.6-.8 0-1.6.5-1.9 1.4-.5 1-.5 2.1-.5 3.2v9.2c-.2.4-.5.7-.8.7zM167.4 197c0-.9.7-1.6 1.6-1.6.9 0 1.6.7 1.6 1.6 0 .9-.7 1.6-1.6 1.6-.9 0-1.6-.7-1.6-1.6z" class="st12"/><path d="M202.6 198.4c-.3 0-.6-.3-.6-.6v-17.1c0-.3.3-.5.6-.6h1.2c.3 0 .6.2.6.6v2.5c.9-2 2.5-3.5 4.5-3.5h.2c2.2 0 3.8 1.6 4.3 3.9.9-2.3 2.7-3.9 4.9-3.9h.2c1.6 0 3.2 1 4 2.6.8 1.5.7 3.5.7 5.2v10.3c0 .3-.3.6-.6.6h-1.5c-.3 0-.6-.2-.6-.5v-10.4c0-1.2.1-2.5-.4-3.6s-1.5-1.8-2.5-1.9c-1.2.1-2.2.9-2.9 2-.9 1.5-.9 2.8-.9 4.5v9.3c0 .3-.3.5-.6.5h-1.5c-.3 0-.6-.3-.6-.6v-11c0-1-.1-2.2-.5-3.1-.5-1-1.5-1.7-2.5-1.8-1 .1-2.1.9-2.7 1.8-.8 1.2-1 2.7-1 4.2v9.8c0 .3-.3.6-.6.6h-1.2zM192.6 198.7c-4.7 0-6.8-4.8-6.8-9.6 0-5.1 2.5-9.4 7.2-9.4h.2c4.6 0 6.9 4.7 6.9 9.5 0 5.1-2.5 9.6-7.3 9.6h-.1l-.1-.1zm.4-2.3c1.6-.1 2.8-1 3.5-2.6.7-1.4.8-3.1.8-4.7 0-1.7-.2-3.5-1-5-.7-1.3-2-2.1-3.3-2.2-1.5.1-2.8 1-3.4 2.6-.6 1.3-.8 3.1-.8 4.6 0 1.7.2 3.6.9 5 .6 1.4 1.9 2.2 3.3 2.3zM177.9 196.3c2.1-.1 3.2-1.8 3.7-4 .1-.3.3-.5.6-.5h1.4c.3 0 .6.3.6.6-.6 3.7-2.9 6.3-6.1 6.3h-.2c-4.7 0-6.7-4.7-6.7-9.5 0-4.7 2-9.6 6.7-9.6h.2c3.3 0 5.6 2.5 6.1 6.3 0 .3-.3.5-.6.6h-1.5c-.3 0-.5-.3-.6-.6-.4-2.1-1.6-3.8-3.6-3.8-3.2.1-4.1 4-4.1 7 .1 2.9.9 7.1 4.1 7.2z" class="st0"/><path d="M111.3 190.2c0 1.3 0 2.4-.6 3.5-.5.9-1.4 1.5-2.3 1.5-1.3 0-2-1-2-2.4 0-2.8 2.5-3.3 4.9-3.3v.7zm3.3 8.1c-.2.2-.5.2-.8.1-1.1-.9-1.3-1.3-1.9-2.2-1.8 1.9-3.1 2.4-5.5 2.4-2.8 0-5-1.7-5-5.2 0-2.7 1.5-4.5 3.5-5.4 1.8-.8 4.3-.9 6.3-1.2v-.4c0-.8.1-1.7-.4-2.4-.4-.6-1.2-.9-1.9-.9-1.3 0-2.4.7-2.7 2-.1.3-.3.6-.6.6l-3.2-.3c-.3-.1-.6-.3-.5-.7.7-3.9 4.3-5.1 7.4-5.1 1.6 0 3.7.4 5 1.7 1.6 1.5 1.5 3.5 1.5 5.7v5.2c0 1.6.6 2.2 1.3 3.1.2.3.3.7 0 .9-.6.5-1.8 1.5-2.5 2.1zM67.7 190.2c0 1.3 0 2.4-.6 3.5-.5.9-1.4 1.5-2.3 1.5-1.3 0-2-1-2-2.4 0-2.8 2.5-3.3 4.9-3.3v.7zm3.3 8.1c-.2.2-.5.2-.8.1-1.1-.9-1.3-1.3-1.9-2.2-1.8 1.9-3.1 2.4-5.5 2.4-2.8 0-5-1.7-5-5.2 0-2.7 1.5-4.5 3.5-5.4 1.8-.8 4.3-.9 6.3-1.2v-.4c0-.8.1-1.7-.4-2.4-.4-.6-1.2-.9-1.9-.9-1.3 0-2.4.7-2.7 2-.1.3-.3.6-.6.6l-3.2-.3c-.3-.1-.6-.3-.5-.7.7-3.9 4.3-5.1 7.4-5.1 1.6 0 3.7.4 5 1.7 1.6 1.5 1.5 3.5 1.5 5.7v5.2c0 1.6.6 2.2 1.3 3.1.2.3.3.7 0 .9-.6.5-1.8 1.5-2.5 2.1z" class="st12"/><circle cx="431.1" cy="115.7" r="4" class="st0" transform="rotate(-22.362 431.124 115.644)"/><circle cx="618" cy="94" r="4" class="st0" transform="rotate(-22.328 618.068 93.967)"/><path d="M274.4 100.8c-2.2 0-4 1.8-4 4s1.8 4 4 4 4-1.8 4-4-1.8-4-4-4z" class="st0"/><path d="M618 94h-71.7l-12.9 12.9H414.1l-18.2 18.3h-59.3l-42.5-42.5h-26.2" class="st35"/><path d="M431.1 115.7h-83.3l-10.9-10.9h-62.5" class="st35"/><path d="M267.9 78.8c-2.2 0-4 1.8-4 4s1.8 4 4 4 4-1.8 4-4-1.8-4-4-4z" class="st0"/><circle cx="267.9" cy="82.7" r="6.3" style="fill:none;stroke:#4ea8f1;stroke-miterlimit:10"/><path d="M87.5 306.2v-11.3c0-.5.4-.9.9-.9H192c.5 0 .9.4.9.9v11.3c0 .5-.4.9-.9.9H88.4c-.5 0-.9-.4-.9-.9zm103.6-10.4H89.3v9.6h101.8v-9.6zM40.8 137.4h-.1c-.5-.1-.8-.5-.7-1 2.4-14.7 15.2-25.5 30.1-25.5h140.4c14.9 0 27.7 10.8 30.1 25.5v.1c0 .5-.4.9-.9.9H40.8zm197.8-1.7c-2.7-13.4-14.5-23.1-28.2-23H70c-13.7 0-25.5 9.6-28.1 23h196.7zM124.8 252c0-.5.4-.9.9-.9h29c.5 0 .9.4.9.9s-.4.9-.9.9h-29c-.5 0-.9-.4-.9-.9z" class="st0"/><path d="M39.5 238.8v-1.6c0-.5.4-.9.9-.9h199.7c.5 0 .9.4.9.9v1.6c0 16.9-13.7 30.5-30.5 30.5H70c-16.9.1-30.5-13.6-30.5-30.5zm1.7-.6v.7c0 15.9 12.9 28.7 28.8 28.8h140.4c15.9 0 28.7-12.9 28.8-28.8v-.7h-198zM39.5 232.7v-91.3c0-.5.4-.9.9-.9s.9.4.9.9v91.3c0 .5-.4.9-.9.9s-.9-.4-.9-.9zM239.2 232.2v-90.8c0-.5.4-.9.9-.9s.9.4.9.9v90.8c0 .5-.4.9-.9.9s-.9-.4-.9-.9zM120.2 294.9V272c0-.5.4-.9.9-.9s.9.4.9.9v22.9c0 .5-.4.9-.9.9s-.9-.4-.9-.9zM158.5 294.9V272c0-.5.4-.9.9-.9s.9.4.9.9v22.9c0 .5-.4.9-.9.9s-.9-.4-.9-.9z" class="st0"/><defs><path id="SVGID_00000127044653670353653030000011852740548076740528_" d="M40.8 136.5h198.8c-2.4-14.3-14.7-24.8-29.2-24.8H70c-14.5.1-26.8 10.6-29.2 24.8z"/></defs><clipPath id="SVGID_00000013892994949654903340000006925201598615566248_"><use xlink:href="#SVGID_00000127044653670353653030000011852740548076740528_" style="overflow:visible"/></clipPath><g style="clip-path:url(#SVGID_00000013892994949654903340000006925201598615566248_)"><path d="m93.134-12.364.849-.849 335.519 335.52-.849.848zM88.619-12.401l.849-.849 335.518 335.52-.848.848zM84.033-12.367l.849-.849L420.4 322.304l-.849.848zM79.518-12.404l.848-.849 335.52 335.519-.85.849zM74.932-12.37l.849-.849L411.3 322.301l-.849.848zM70.417-12.408l.848-.848 335.52 335.519-.85.848zM65.83-12.373l.85-.849 335.518 335.52-.848.848zM61.315-12.41l.849-.849L397.683 322.26l-.849.848zM56.73-12.376l.848-.849 335.52 335.52-.85.848zM52.144-12.343l.848-.848 335.519 335.519-.849.848zM47.623-12.393l.849-.848L383.99 322.277l-.848.849zM43.037-12.359l.849-.848 335.519 335.519-.849.848zM38.522-12.396l.848-.848 335.52 335.519-.85.848zM33.936-12.362l.848-.848 335.52 335.519-.85.848zM29.42-12.399l.85-.848 335.518 335.519-.848.848zM24.835-12.365l.848-.848 335.52 335.519-.85.848zM20.32-12.402l.848-.848 335.519 335.519-.849.848zM15.734-12.368l.848-.848 335.52 335.519-.85.848zM11.218-12.405l.849-.849 335.519 335.52-.849.848zM6.632-12.37l.849-.85L343 322.3l-.849.848zM2.117-12.408l.849-.849 335.519 335.52-.849.848zM-2.37-12.376l.849-.849 335.519 335.52-.849.848zM-6.885-12.413l.849-.848 335.519 335.519-.849.848zM-11.47-12.38l.848-.848 335.519 335.52-.849.848zM-16.057-12.345l.849-.849 335.519 335.52-.849.848zM-20.572-12.383l.848-.848 335.52 335.519-.85.848zM-25.158-12.348l.849-.849 335.519 335.52-.849.848zM-29.673-12.386l.848-.848 335.52 335.519-.85.848zM-34.26-12.351l.85-.849 335.518 335.519-.848.848zM-38.774-12.389l.848-.848 335.519 335.519-.849.848zM-43.36-12.355l.848-.848 335.52 335.519-.85.848zM-47.876-12.392l.849-.848 335.519 335.519-.849.848zM-52.058-12.35l.848-.848 335.52 335.519-.85.848zM-56.573-12.387l.848-.848 335.519 335.519-.848.848zM-61.16-12.352l.85-.849 335.518 335.519-.848.848zM-65.675-12.39l.849-.848L270.693 322.28l-.849.848zM-70.26-12.356l.848-.848 335.519 335.519-.849.848zM-74.776-12.393l.849-.848 335.519 335.519-.849.848zM-79.362-12.359l.849-.848 335.519 335.519-.849.848zM-83.877-12.396l.848-.848 335.52 335.519-.85.848zM-88.463-12.362l.849-.848 335.519 335.519-.849.848zM-92.978-12.399l.848-.848 335.52 335.519-.85.848zM-97.564-12.365l.848-.848 335.52 335.519-.85.848zM-102.155-12.344l.848-.848 335.52 335.518-.85.849z" class="st0"/></g><defs><path id="SVGID_00000009573146603245066930000004873771729947955081_" d="M40.4 237.3v1.6c0 16.4 13.3 29.6 29.6 29.6h140.4c16.4 0 29.6-13.3 29.6-29.6v-1.6H40.4zm80.9 14.7c0-2.4 2-4.4 4.4-4.4h29c2.4 0 4.4 2 4.4 4.4 0 2.4-2 4.4-4.4 4.4h-29c-2.4.1-4.4-1.9-4.4-4.4z"/></defs><clipPath id="SVGID_00000069378124409035091710000014632548403386666653_"><use xlink:href="#SVGID_00000009573146603245066930000004873771729947955081_" style="overflow:visible"/></clipPath><g style="clip-path:url(#SVGID_00000069378124409035091710000014632548403386666653_)"><path d="m53.821 59.833.849-.848 335.519 335.519-.849.848zM49.306 59.797l.849-.849 335.519 335.519-.849.848zM44.82 59.828l.848-.848 335.519 335.519-.849.848zM40.304 59.791l.848-.848 335.52 335.519-.85.848zM35.718 59.825l.849-.848 335.519 335.519-.849.848zM31.132 59.859l.849-.849L367.5 394.53l-.849.848zM26.617 59.822l.848-.848 335.52 335.519-.85.848zM22.03 59.856l.85-.849 335.518 335.52-.848.848zM17.516 59.82l.848-.85 335.52 335.52-.85.848zM12.93 59.853l.848-.849 335.52 335.52-.85.848zM8.415 59.816l.848-.848 335.52 335.519-.85.848zM3.829 59.85 4.677 59l335.52 335.519-.85.849zM-.687 59.813l.849-.849 335.519 335.52-.849.848zM-5.081 59.826l.848-.849 335.52 335.52-.85.848zM-9.667 59.86l.848-.85 335.52 335.52-.85.848zM-14.183 59.822l.849-.848 335.519 335.519-.849.848zM-18.768 59.856l.848-.848L317.6 394.527l-.848.848zM-23.284 59.82l.849-.849 335.519 335.52-.849.848zM-27.87 59.853l.849-.848 335.519 335.519-.849.848zM-32.385 59.817l.849-.849 335.519 335.52-.849.848zM-36.872 59.849l.849-.849 335.519 335.519-.849.848zM-41.387 59.811l.849-.848L294.98 394.482l-.849.848zM-45.973 59.845l.849-.848 335.519 335.519-.849.848zM-50.488 59.808l.848-.848 335.52 335.519-.85.848zM-55.074 59.842l.849-.848 335.519 335.519-.849.848zM-59.59 59.805l.85-.848 335.518 335.519-.848.848zM-64.175 59.84l.848-.85 335.52 335.52-.85.848zM-68.69 59.802l.848-.848 335.519 335.519-.849.848zM-73.276 59.836l.848-.848 335.52 335.519-.85.848zM-77.792 59.8l.849-.85 335.519 335.52-.849.848zM-82.377 59.833l.848-.848 335.52 335.519-.85.848zM-86.49 59.804l.849-.849 335.519 335.52-.849.848zM-91.076 59.838l.849-.849 335.519 335.519-.849.848zM-95.59 59.8l.848-.848 335.519 335.52-.849.848zM-100.177 59.834l.849-.848L236.19 394.505l-.849.848zM-104.692 59.798l.849-.849 335.519 335.52-.849.848zM-109.278 59.831l.849-.848L227.09 394.502l-.849.848zM-113.793 59.795l.848-.849 335.52 335.52-.85.848zM-118.38 59.828l.85-.848 335.518 335.519-.848.848zM-122.894 59.792l.848-.849 335.52 335.52-.85.848zM-127.48 59.825l.848-.848 335.52 335.519-.85.848zM-132.066 59.86l.848-.85 335.52 335.52-.85.848zM-136.587 59.81l.849-.85L199.78 394.48l-.849.848zM-141.173 59.843l.849-.849 335.519 335.52-.849.848zM-145.688 59.806l.848-.848 335.52 335.519-.85.848z" class="st0"/></g><path d="M592.6 259c-6-.2-11.6-2.6-15.9-6.7-8.4-7.8-12.7-21.3-12.7-40.1s4.3-32.3 12.7-40.1c4.4-4.3 10.4-6.7 16.6-6.7h70v-5.1h-44.4c-.9 0-1.6-.7-1.6-1.6v-26.9c0-1.4.3-2.8.8-4.1 2.1-5 10.3-16.7 42.4-16.7 32 0 40.3 11.7 42.4 16.7.5 1.3.8 2.7.8 4.1v50.8c0 12.3-10 22.2-22.3 22.3h-39.2c-16.7 0-30.2 13.5-30.2 30.2v22.5c0 .4-.2.8-.5 1.1-.3.3-.7.4-1.1.5h-17.3c0-.2-.2-.2-.5-.2zm.2-90.5c-5.2.2-10.2 2.3-14 5.9-7.7 7.2-11.6 19.9-11.6 37.7 0 17.9 3.9 30.6 11.7 37.8 3.8 3.7 8.9 5.8 14.2 5.9H609V235c0-18.4 14.9-33.3 33.4-33.4h39.2c10.5 0 19-8.5 19.1-19.1v-50.8c0-1-.2-2-.6-2.9-1.8-4.4-9.3-14.7-39.4-14.7-30.1 0-37.6 10.3-39.4 14.7-.4.9-.6 1.9-.6 2.9V157h44.4c.9 0 1.6.7 1.6 1.6v8.3c0 .9-.7 1.6-1.6 1.6h-72.3zm45.1-19.4c-5.5 0-9.9-4.4-9.9-9.9s4.4-9.9 9.9-9.9 9.9 4.4 9.9 9.9-4.4 9.9-9.9 9.9zm0-16.5a6.7 6.7 0 1 0 6.7 6.7c0-3.7-3-6.7-6.7-6.7z" class="st0"/><path d="M664 307.1c-32 0-40.3-11.7-42.4-16.7-.5-1.3-.8-2.7-.8-4.1v-50.8c0-12.3 10-22.2 22.3-22.3h39.2c16.7 0 30.2-13.5 30.2-30.2v-22.5c0-.4.2-.8.5-1.1.3-.3.7-.4 1.1-.5h17.3c6.2 0 12.1 2.4 16.5 6.7 8.4 7.8 12.7 21.3 12.7 40.1s-4.3 32.3-12.7 40.1c-4.4 4.3-10.4 6.7-16.6 6.7h-70v5.1h44.4c.9 0 1.6.7 1.6 1.6v26.9c0 1.4-.3 2.8-.8 4.1-2.2 5.2-10.5 16.9-42.5 16.9zm-20.9-90.6c-10.5 0-19 8.5-19.1 19.1v50.8c0 1 .2 2 .6 2.9 1.8 4.4 9.3 14.7 39.4 14.7 30.1 0 37.6-10.3 39.4-14.7.4-.9.6-1.9.6-2.9V261h-44.4c-.9 0-1.6-.7-1.6-1.6v-8.3c0-.9.7-1.6 1.6-1.6h71.7c5.4 0 10.5-2.2 14.4-5.9 7.7-7.2 11.6-19.9 11.6-37.7 0-17.9-3.9-30.6-11.7-37.8-3.8-3.7-8.9-5.8-14.2-5.9H715.6v20.9c0 18.4-15 33.3-33.4 33.4h-39.1zm43.5 72.1c-5.5 0-9.9-4.4-9.9-9.9s4.4-9.9 9.9-9.9 9.9 4.4 9.9 9.9-4.4 9.9-9.9 9.9zm0-16.6a6.7 6.7 0 1 0 6.7 6.7c0-3.7-3-6.6-6.7-6.7z" class="st0"/><defs><path id="SVGID_00000157265726898672754620000013273535631171746944_" d="M701.4 128.2c-2-4.9-10-15.7-40.9-15.7s-38.9 10.8-40.9 15.7c-.5 1.1-.7 2.3-.7 3.5v26.9h46v8.3h-71.7s-27.6-2-27.6 45.2 27.6 45.2 27.6 45.2h17.4v-22.5c0-17.5 14.2-31.8 31.8-31.8h39.2c11.4 0 20.6-9.2 20.6-20.7v-50.8c-.1-1-.3-2.2-.8-3.3zm-63.5 19.3c-4.6 0-8.3-3.7-8.3-8.3s3.7-8.3 8.3-8.3c4.6 0 8.3 3.7 8.3 8.3 0 4.6-3.7 8.3-8.3 8.3z"/></defs><clipPath id="SVGID_00000082350858260664905660000018214033773203643839_"><use xlink:href="#SVGID_00000157265726898672754620000013273535631171746944_" style="overflow:visible"/></clipPath><g style="clip-path:url(#SVGID_00000082350858260664905660000018214033773203643839_)"><path d="M787.8 96.5 625.3 259h3.1L790.9 96.5zM779.3 96.8 617 259h3.2L782.4 96.8zM771 96.8 609.2 258.6h3.2L774.2 96.8zM762.8 96.8 600.8 259h3.1l162-162.2zM754.7 96.8 592.5 259h3.1L757.9 96.8zM745.8 97.4 584.4 258.9h3.1L749 97.4zM737.6 97.4 576.1 258.9h3.2L740.7 97.4zM729.3 97.5 567.9 258.9h3.1L732.4 97.5zM721.1 97.4 559.6 258.9h3.2L724.2 97.4zM712.5 97.8 551.4 258.9h3.2l161-161.1zM703.6 98.4 542.8 259.2h3.2L706.8 98.4zM695.7 98.1l-161 161h3.1l161.1-161zM687.2 98.4 526.3 259.3h3.1L690.3 98.4zM678.6 98.7 518 259.3h3.2L681.8 98.7zM671.3 97.8l-162 162h3.2l162-162zM663.3 97.4 500.7 260.1h3.2L666.5 97.4zM655.4 97.1 492.8 259.8h3.1L658.6 97.1z" class="st0"/></g></g></svg>